# xmcd
#
# Track frame offsets:
# 150
# 16588
# 29813
# 50305
# 66599
#
# Disc length: 1161 seconds
#
# Revision: 1
# Processed by: cddbd v1.5.2PL0 Copyright (c) Steve Scherf et al.
# Submitted via: CedeCatalogueitor 2.6.0.6 http://personales.ya.com/cdcatalogueitor
#
DISCID=3e048705
DTITLE=Fink - This Is The Thing
DYEAR=1900
DGENRE=
TTITLE0=This Is The Thing
TTITLE1=Make It Good
TTITLE2=This Is The Thing (album)
TTITLE3=Make It Good (album)
TTITLE4=This Is The Thing (acoustic)
EXTD=
EXTT0=
EXTT1=
EXTT2=
EXTT3=
EXTT4=
PLAYORDER=
